<svg version="1.1" id="Layer_1" xmlns="http://www.w3.org/2000/svg" xmlns:xlink="http://www.w3.org/1999/xlink" x="0px" y="0px"
	 width="100%" viewBox="0 0 1024 1024" enable-background="new 0 0 1024 1024" xml:space="preserve">
<path fill="#000000" opacity="1.000000" stroke="none" 
	d="
M668.019470,901.143066 
	C629.750244,916.682373 590.382080,925.999390 549.616821,929.414978 
	C452.315155,937.567627 362.557800,915.128845 281.688416,860.547607 
	C187.853485,797.215576 128.724564,709.545959 104.040291,598.964233 
	C96.722488,566.181641 93.509697,532.852051 94.998810,499.278351 
	C99.513382,397.492157 135.123901,308.182587 203.697357,232.503510 
	C256.779327,173.921143 321.491730,133.573059 397.294098,111.237259 
	C428.852448,101.938324 461.161835,97.046646 494.102295,95.501740 
	C555.848328,92.605835 615.139160,103.005554 672.135254,126.667130 
	C715.284485,144.580292 754.459106,168.986298 789.373413,200.047165 
	C831.450500,237.480240 865.177063,281.358917 889.659302,332.147430 
	C908.216980,370.645508 920.488098,411.072327 926.529846,453.448242 
	C930.541687,481.586761 931.830383,509.824768 930.064026,538.102905 
	C924.381409,629.076355 892.318970,709.704224 834.087952,779.903870 
	C789.030273,834.222595 733.700073,874.438904 668.019470,901.143066 
M212.182831,279.660492 
	C209.456451,283.237061 206.643097,286.751038 204.016693,290.399567 
	C160.771896,350.474396 136.898026,417.569122 132.497330,491.353058 
	C129.963074,533.843567 134.138901,575.886597 146.246811,616.821289 
	C173.848877,710.139221 228.867920,783.170044 310.742920,835.563477 
	C363.613281,869.396301 421.723114,888.329224 484.418610,892.985229 
	C523.061218,895.855103 561.333618,893.290894 598.993164,884.289917 
	C683.208191,864.162048 752.739197,820.222595 807.748779,753.485229 
	C860.167725,689.890930 888.388489,616.571045 893.473694,534.480225 
	C895.236389,506.024750 893.701050,477.566498 888.740356,449.373322 
	C877.402344,384.935944 851.823059,326.963165 810.769104,275.853638 
	C778.850037,236.116364 740.775574,203.715271 696.181458,179.098862 
	C647.979858,152.491119 596.402039,136.998032 541.409790,133.044022 
	C507.505951,130.606277 473.832428,132.250168 440.486420,138.881958 
	C396.813873,147.567474 355.761627,163.140060 317.596863,186.229309 
	C276.952332,210.818771 241.951187,241.742203 212.182831,279.660492 
z"/>
<path fill="#000000" opacity="1.000000" stroke="none" 
	d="
M261.999939,696.223206 
	C247.548279,696.223572 233.596588,696.223572 219.992447,696.223572 
	C218.608154,693.486511 220.022232,691.966309 220.699142,690.369263 
	C246.172470,630.268494 271.675690,570.180298 297.173004,510.089691 
	C321.757111,452.151184 346.389984,394.233246 370.829254,336.233704 
	C372.867035,331.397552 375.382843,329.452515 380.797760,329.599670 
	C395.283295,329.993317 409.788300,329.820526 424.282623,329.639130 
	C428.035278,329.592194 429.941681,331.012482 431.383667,334.408691 
	C468.148163,420.995880 504.988159,507.551025 541.840698,594.100830 
	C555.408264,625.964722 569.045166,657.799133 582.632019,689.654846 
	C583.335938,691.305420 584.364075,692.887756 584.247986,694.716675 
	C582.995544,696.600586 581.177612,696.039246 579.611328,696.043274 
	C560.949341,696.091187 542.286072,695.981201 523.625916,696.178711 
	C519.487122,696.222534 517.305542,694.762878 515.718689,690.982605 
	C504.181885,663.500061 492.368713,636.133118 480.924438,608.612549 
	C478.904358,603.754700 476.362000,601.935974 470.970215,601.984497 
	C439.480286,602.267395 407.986725,602.153687 376.494415,602.131531 
	C374.375946,602.130066 372.165985,602.609192 370.207642,601.548706 
	C369.056519,599.919556 370.067841,598.585571 370.617401,597.257690 
	C377.939209,579.565125 385.357880,561.912170 392.561768,544.171814 
	C393.874023,540.940125 396.107452,540.740906 398.911591,540.750244 
	C413.907745,540.800049 428.904266,540.811951 443.900452,540.772339 
	C450.701996,540.754395 451.281494,539.826172 448.615082,533.530273 
	C434.200378,499.494049 419.781830,465.459503 405.319153,431.443665 
	C404.438232,429.371674 403.811890,427.011993 401.671417,425.823303 
	C399.583130,426.451263 399.134552,428.156982 398.498688,429.655609 
	C370.401367,495.875641 342.326874,562.105347 314.227203,628.324402 
	C305.316193,649.323853 296.268646,670.265808 287.468292,691.311340 
	C285.955780,694.928467 283.941589,696.481506 279.992065,696.299011 
	C274.172607,696.030029 268.331696,696.225342 261.999939,696.223206 
z"/>
<path fill="#000000" opacity="1.000000" stroke="none" 
	d="
M532.222534,533.656128 
	C524.578735,520.119934 523.398132,505.904968 523.537842,490.962982 
	C524.017700,439.651093 523.704041,388.331787 523.693298,337.015289 
	C523.691833,329.780182 523.693237,329.765656 530.783142,329.757965 
	C546.777832,329.740601 562.772583,329.740204 578.767273,329.730621 
	C585.767273,329.726440 585.917114,329.880737 585.917358,337.111084 
	C585.920959,433.079346 585.925293,529.047607 585.929504,625.015869 
	C585.929504,625.848938 586.027893,626.695435 585.915222,627.512878 
	C585.198547,632.712952 587.654358,634.234558 592.547546,633.903015 
	C597.689209,633.554749 602.872253,633.813721 608.037170,633.811829 
	C672.349304,633.788025 736.661499,633.765015 800.973633,633.741699 
	C807.184387,633.739441 807.295227,633.829468 807.307068,640.235352 
	C807.337891,656.896423 807.192383,673.560059 807.464050,690.217041 
	C807.540894,694.929199 805.870850,696.193115 801.408569,696.185364 
	C736.763428,696.072754 672.117981,696.074829 607.472717,696.125671 
	C603.801636,696.128540 601.291870,695.407166 599.664978,691.580566 
	C577.318848,639.020508 554.834106,586.519348 532.222534,533.656128 
z"/>
</svg>